<svg class="animated" id="freepik_stories-buddha-hand" xmlns="http://www.w3.org/2000/svg" viewBox="0 0 500 500" version="1.1" xmlns:xlink="http://www.w3.org/1999/xlink" xmlns:svgjs="http://svgjs.com/svgjs"><style>svg#freepik_stories-buddha-hand:not(.animated) .animable {opacity: 0;}svg#freepik_stories-buddha-hand.animated #freepik--background-complete--inject-6 {animation: 1.5s Infinite  linear wind;animation-delay: 0s;}svg#freepik_stories-buddha-hand.animated #freepik--Circles--inject-6 {animation: 1.5s Infinite  linear heartbeat;animation-delay: 1.5s;}svg#freepik_stories-buddha-hand.animated #freepik--Hand--inject-6 {animation: 3s Infinite  linear floating;animation-delay: 0s;}svg#freepik_stories-buddha-hand.animated #freepik--Flower--inject-6 {animation: 3s Infinite  linear floating;animation-delay: 0s;}            @keyframes wind {                0% {                    transform: rotate( 0deg );                }                25% {                    transform: rotate( 1deg );                }                75% {                    transform: rotate( -1deg );                }            }                    @keyframes heartbeat {                0% {                    transform: scale(1);                }                10% {                    transform: scale(1.1);                }                30% {                    transform: scale(1);                }                40% {                    transform: scale(1);                }                50% {                    transform: scale(1.1);                }                60% {                    transform: scale(1);                }                100% {                    transform: scale(1);                }            }                    @keyframes floating {                0% {                    opacity: 1;                    transform: translateY(0px);                }                50% {                    transform: translateY(-10px);                }                100% {                    opacity: 1;                    transform: translateY(0px);                }            }        </style><g id="freepik--background-complete--inject-6" class="animable animator-active" style="transform-origin: 250px 249.525px;"><path d="M250,374.34A124.82,124.82,0,1,1,374.81,249.52,125,125,0,0,1,250,374.34Zm0-248.51A123.7,123.7,0,1,0,373.69,249.52,123.83,123.83,0,0,0,250,125.83Z" style="fill: rgb(235, 235, 235); transform-origin: 249.99px 249.52px;" id="elabe1p6cufm5" class="animable"></path><path d="M250,360.81A111.29,111.29,0,1,1,361.28,249.52,111.41,111.41,0,0,1,250,360.81Zm0-221.45A110.17,110.17,0,1,0,360.16,249.52,110.28,110.28,0,0,0,250,139.36Z" style="fill: rgb(235, 235, 235); transform-origin: 249.99px 249.52px;" id="el1qxvmqkg3o8" class="animable"></path><g id="el1ai418k8jo7"><rect x="176.34" y="58.3" width="1.12" height="20.59" style="fill: rgb(235, 235, 235); transform-origin: 176.9px 68.595px; transform: rotate(-22deg);" class="animable"></rect></g><g id="elibrypx42ryf"><rect x="189.97" y="85.36" width="1.12" height="33.96" style="fill: rgb(235, 235, 235); transform-origin: 190.53px 102.34px; transform: rotate(-22deg);" class="animable"></rect></g><g id="elbpm4nl016ps"><rect x="69.81" y="162.98" width="1.12" height="20.59" style="fill: rgb(235, 235, 235); transform-origin: 70.37px 173.275px; transform: rotate(-67deg);" class="animable"></rect></g><g id="elygb07wqc1rl"><rect x="103.32" y="170.52" width="1.12" height="33.96" style="fill: rgb(235, 235, 235); transform-origin: 103.88px 187.5px; transform: rotate(-67deg);" class="animable"></rect></g><g id="eletwy00js2ih"><rect x="58.78" y="322.06" width="20.59" height="1.12" style="fill: rgb(235, 235, 235); transform-origin: 69.075px 322.62px; transform: rotate(-22deg);" class="animable"></rect></g><g id="elitbsacr6169"><rect x="85.84" y="308.43" width="33.96" height="1.12" style="fill: rgb(235, 235, 235); transform-origin: 102.82px 308.99px; transform: rotate(-22deg);" class="animable"></rect></g><g id="elf8z0ckpap0o"><rect x="163.46" y="428.59" width="20.59" height="1.12" style="fill: rgb(235, 235, 235); transform-origin: 173.755px 429.15px; transform: rotate(-67deg);" class="animable"></rect></g><g id="el5fgm2n5uusy"><rect x="171" y="395.09" width="33.96" height="1.12" style="fill: rgb(235, 235, 235); transform-origin: 187.98px 395.65px; transform: rotate(-67deg);" class="animable"></rect></g><g id="elu01e1q30uk"><rect x="322.54" y="420.16" width="1.12" height="20.59" style="fill: rgb(235, 235, 235); transform-origin: 323.1px 430.455px; transform: rotate(-22deg);" class="animable"></rect></g><g id="elqgyg85u34nk"><rect x="308.91" y="379.73" width="1.12" height="33.96" style="fill: rgb(235, 235, 235); transform-origin: 309.47px 396.71px; transform: rotate(-22deg);" class="animable"></rect></g><g id="eloudbw9y83ia"><rect x="429.07" y="315.48" width="1.12" height="20.59" style="fill: rgb(235, 235, 235); transform-origin: 429.63px 325.775px; transform: rotate(-67deg);" class="animable"></rect></g><g id="elqvkko0m7tha"><rect x="395.56" y="294.57" width="1.12" height="33.96" style="fill: rgb(235, 235, 235); transform-origin: 396.12px 311.55px; transform: rotate(-67deg);" class="animable"></rect></g><g id="elyolmpk507ij"><rect x="420.64" y="175.86" width="20.59" height="1.12" style="fill: rgb(235, 235, 235); transform-origin: 430.935px 176.42px; transform: rotate(-22deg);" class="animable"></rect></g><g id="eltr4wfhwmf7l"><rect x="380.21" y="189.5" width="33.96" height="1.12" style="fill: rgb(235, 235, 235); transform-origin: 397.19px 190.06px; transform: rotate(-22deg);" class="animable"></rect></g><g id="elcdxgxbz7hz9"><rect x="315.95" y="69.34" width="20.59" height="1.12" style="fill: rgb(235, 235, 235); transform-origin: 326.245px 69.9px; transform: rotate(-67deg);" class="animable"></rect></g><g id="elst41fk19vv9"><rect x="295.05" y="102.84" width="33.96" height="1.12" style="fill: rgb(235, 235, 235); transform-origin: 312.03px 103.4px; transform: rotate(-67deg);" class="animable"></rect></g><rect x="249.44" y="28.12" width="1.12" height="50.64" style="fill: rgb(235, 235, 235); transform-origin: 250px 53.44px;" id="eli1qdy68uhep" class="animable"></rect><rect x="249.44" y="90.17" width="1.12" height="17.58" style="fill: rgb(235, 235, 235); transform-origin: 250px 98.96px;" id="el0bwhgjn3j6cc" class="animable"></rect><g id="el3kaafurua48"><rect x="110.79" y="85.55" width="1.12" height="50.64" style="fill: rgb(235, 235, 235); transform-origin: 111.35px 110.87px; transform: rotate(-45deg);" class="animable"></rect></g><g id="elgewhmjl29r"><rect x="142.98" y="134.27" width="1.12" height="17.58" style="fill: rgb(235, 235, 235); transform-origin: 143.54px 143.06px; transform: rotate(-45deg);" class="animable"></rect></g><rect x="28.6" y="248.96" width="50.64" height="1.12" style="fill: rgb(235, 235, 235); transform-origin: 53.92px 249.52px;" id="elm7keqjifns" class="animable"></rect><rect x="90.65" y="248.96" width="17.58" height="1.12" style="fill: rgb(235, 235, 235); transform-origin: 99.44px 249.52px;" id="el1vwj8glwdhg" class="animable"></rect><g id="elwsyqjmjxm2"><rect x="86.03" y="387.61" width="50.64" height="1.12" style="fill: rgb(235, 235, 235); transform-origin: 111.35px 388.17px; transform: rotate(-45deg);" class="animable"></rect></g><g id="elgux92mnbl1"><rect x="134.75" y="355.42" width="17.58" height="1.12" style="fill: rgb(235, 235, 235); transform-origin: 143.54px 355.98px; transform: rotate(-45deg);" class="animable"></rect></g><rect x="249.44" y="420.29" width="1.12" height="50.64" style="fill: rgb(235, 235, 235); transform-origin: 250px 445.61px;" id="elb6mrwi9gn9v" class="animable"></rect><rect x="249.44" y="391.29" width="1.12" height="17.58" style="fill: rgb(235, 235, 235); transform-origin: 250px 400.08px;" id="el3ti1f06c8mc" class="animable"></rect><g id="elfy64b5whafk"><rect x="388.09" y="362.85" width="1.12" height="50.64" style="fill: rgb(235, 235, 235); transform-origin: 388.65px 388.17px; transform: rotate(-45deg);" class="animable"></rect></g><g id="elacv8gj71q3q"><rect x="355.9" y="347.19" width="1.12" height="17.58" style="fill: rgb(235, 235, 235); transform-origin: 356.46px 355.98px; transform: rotate(-45deg);" class="animable"></rect></g><rect x="420.76" y="248.96" width="50.64" height="1.12" style="fill: rgb(235, 235, 235); transform-origin: 446.08px 249.52px;" id="elhevldkw6l2" class="animable"></rect><rect x="391.76" y="248.96" width="17.58" height="1.12" style="fill: rgb(235, 235, 235); transform-origin: 400.55px 249.52px;" id="eli99up1xud8" class="animable"></rect><g id="elrnja927xlc"><rect x="363.33" y="110.31" width="50.64" height="1.12" style="fill: rgb(235, 235, 235); transform-origin: 388.65px 110.87px; transform: rotate(-45deg);" class="animable"></rect></g><g id="elqxag18efeum"><rect x="347.67" y="142.5" width="17.58" height="1.12" style="fill: rgb(235, 235, 235); transform-origin: 356.46px 143.06px; transform: rotate(-45deg);" class="animable"></rect></g><circle cx="250" cy="249.52" r="2.55" style="fill: rgb(235, 235, 235); transform-origin: 250px 249.52px;" id="elkokxk2rndbj" class="animable"></circle><polygon points="399.46 263.57 404.35 262.67 405.44 257.51 406.54 262.67 411.43 263.57 406.56 264.76 405.44 269.64 404.33 264.76 399.46 263.57" style="fill: rgb(235, 235, 235); transform-origin: 405.445px 263.575px;" id="el1yqi81ni2q6" class="animable"></polygon><polygon points="140.5 372.43 145.39 371.52 146.49 366.37 147.58 371.52 152.47 372.43 147.6 373.62 146.49 378.5 145.37 373.62 140.5 372.43" style="fill: rgb(235, 235, 235); transform-origin: 146.485px 372.435px;" id="elbnaxo1enpcc" class="animable"></polygon><polygon points="52.1 184.61 56.99 183.71 58.09 178.55 59.18 183.71 64.07 184.62 59.2 185.81 58.09 190.68 56.97 185.81 52.1 184.61" style="fill: rgb(235, 235, 235); transform-origin: 58.085px 184.615px;" id="elmm317dkcfpk" class="animable"></polygon><polygon points="435.93 157.45 440.82 156.55 441.92 151.39 443.01 156.55 447.9 157.45 443.03 158.65 441.92 163.52 440.8 158.65 435.93 157.45" style="fill: rgb(235, 235, 235); transform-origin: 441.915px 157.455px;" id="elphl7qd1ij2" class="animable"></polygon><polygon points="360.88 309.68 365.77 308.78 366.87 303.62 367.96 308.78 372.85 309.69 367.98 310.88 366.87 315.75 365.75 310.88 360.88 309.68" style="fill: rgb(235, 235, 235); transform-origin: 366.865px 309.685px;" id="el015can23kks3p" class="animable"></polygon><polygon points="102.55 261.03 107.44 260.12 108.54 254.97 109.63 260.12 114.53 261.03 109.65 262.22 108.54 267.09 107.42 262.22 102.55 261.03" style="fill: rgb(235, 235, 235); transform-origin: 108.54px 261.03px;" id="elyqzb1nj9fy" class="animable"></polygon><polygon points="112.19 303.8 114.92 303.3 115.53 300.42 116.14 303.3 118.88 303.81 116.15 304.47 115.53 307.19 114.91 304.47 112.19 303.8" style="fill: rgb(235, 235, 235); transform-origin: 115.535px 303.805px;" id="elwlmxr2lfle" class="animable"></polygon><polygon points="370.28 419.15 373.01 418.64 373.63 415.76 374.24 418.64 376.97 419.15 374.25 419.82 373.63 422.54 373 419.82 370.28 419.15" style="fill: rgb(235, 235, 235); transform-origin: 373.625px 419.15px;" id="el5zdlo3k37v9" class="animable"></polygon><polygon points="248.37 80.85 251.1 80.34 251.72 77.46 252.33 80.34 255.06 80.85 252.34 81.52 251.72 84.24 251.09 81.52 248.37 80.85" style="fill: rgb(235, 235, 235); transform-origin: 251.715px 80.85px;" id="el69mez47gtoe" class="animable"></polygon><polygon points="97.99 366.37 100.72 365.86 101.33 362.98 101.94 365.86 104.68 366.37 101.96 367.03 101.33 369.76 100.71 367.03 97.99 366.37" style="fill: rgb(235, 235, 235); transform-origin: 101.335px 366.37px;" id="elm7u6gurffio" class="animable"></polygon><polygon points="94.64 126.24 97.38 125.73 97.99 122.85 98.6 125.73 101.33 126.24 98.61 126.91 97.99 129.63 97.36 126.91 94.64 126.24" style="fill: rgb(235, 235, 235); transform-origin: 97.985px 126.24px;" id="el3zfv08g6e3x" class="animable"></polygon><polygon points="357.35 232.57 360.08 232.07 360.69 229.18 361.31 232.07 364.04 232.57 361.32 233.24 360.69 235.96 360.07 233.24 357.35 232.57" style="fill: rgb(235, 235, 235); transform-origin: 360.695px 232.57px;" id="elp7cyjx64h9" class="animable"></polygon><polygon points="68.68 262.22 71.41 261.72 72.02 258.83 72.64 261.72 75.37 262.23 72.65 262.89 72.02 265.61 71.4 262.89 68.68 262.22" style="fill: rgb(235, 235, 235); transform-origin: 72.025px 262.22px;" id="el8hn4hbhujf7" class="animable"></polygon><path d="M379.74,104.33a.8.8,0,0,0,0-1.59A.8.8,0,0,0,379.74,104.33Z" style="fill: rgb(235, 235, 235); transform-origin: 379.74px 103.535px;" id="elk4y7hau3xyc" class="animable"></path><path d="M408.72,297.14a.79.79,0,0,0,0-1.58A.79.79,0,0,0,408.72,297.14Z" style="fill: rgb(235, 235, 235); transform-origin: 408.72px 296.35px;" id="elcimsaastsu7" class="animable"></path><path d="M173.83,141.77a.8.8,0,0,0,0-1.59A.8.8,0,0,0,173.83,141.77Z" style="fill: rgb(235, 235, 235); transform-origin: 173.83px 140.975px;" id="elr9ews2g7pn" class="animable"></path><path d="M372.85,167.7a.79.79,0,0,0,0-1.58A.79.79,0,0,0,372.85,167.7Z" style="fill: rgb(235, 235, 235); transform-origin: 372.85px 166.91px;" id="ely9in5h1wbgb" class="animable"></path><path d="M327.38,221.25a.56.56,0,0,0,0-1.12A.56.56,0,0,0,327.38,221.25Z" style="fill: rgb(235, 235, 235); transform-origin: 327.38px 220.69px;" id="elhx9q2ih4d7v" class="animable"></path><path d="M266.63,115.16a.56.56,0,0,0,0-1.12A.56.56,0,0,0,266.63,115.16Z" style="fill: rgb(235, 235, 235); transform-origin: 266.63px 114.6px;" id="elf5z2n9ycj2i" class="animable"></path><path d="M363.51,394.54a.56.56,0,0,0,0-1.12A.56.56,0,0,0,363.51,394.54Z" style="fill: rgb(235, 235, 235); transform-origin: 363.51px 393.98px;" id="elig8snvkcut" class="animable"></path><path d="M126.1,177.43a1.52,1.52,0,0,0,0-3A1.52,1.52,0,0,0,126.1,177.43Z" style="fill: rgb(235, 235, 235); transform-origin: 126.1px 175.93px;" id="elmnqvggw4t4m" class="animable"></path><path d="M356.33,399.7a1.53,1.53,0,0,0,0-3.05A1.53,1.53,0,0,0,356.33,399.7Z" style="fill: rgb(235, 235, 235); transform-origin: 356.33px 398.175px;" id="elxlrfi4i1tj" class="animable"></path></g><g id="freepik--Circles--inject-6" class="animable" style="transform-origin: 250px 250px;"><path d="M250,436.71C147.05,436.71,63.29,353,63.29,250S147.05,63.29,250,63.29,436.71,147.05,436.71,250,353,436.71,250,436.71Zm0-371.42C148.15,65.29,65.29,148.15,65.29,250S148.15,434.71,250,434.71,434.71,351.85,434.71,250,351.85,65.29,250,65.29Z" style="fill: rgb(0, 255, 136); transform-origin: 250px 250px;" id="el682w0svx6fu" class="animable"></path><path d="M250,404.57c-85.23,0-154.57-69.34-154.57-154.57S164.77,95.43,250,95.43,404.57,164.77,404.57,250,335.23,404.57,250,404.57Zm0-308.39c-84.82,0-153.82,69-153.82,153.82s69,153.82,153.82,153.82,153.82-69,153.82-153.82S334.82,96.18,250,96.18Z" style="fill: rgb(0, 255, 136); transform-origin: 250px 250px;" id="elyxod0zyplmc" class="animable"></path></g><g id="freepik--Hand--inject-6" class="animable" style="transform-origin: 230.935px 286.973px;"><path d="M184.39,365c-1.12,3.29-64.19-2.44-64.19-2.44s-16.06,35.83-9.75,65.07A152.38,152.38,0,0,0,130.52,477s120.49.13,183.66-56.35L184.39,365" style="fill: rgb(0, 255, 136); transform-origin: 211.58px 419.78px;" id="elt34mu76qzpq" class="animable"></path><path d="M204.19,271.77s6.51-63.46,28.51-82.57,65.28-11.29,89.52-3.8c13.74,4.25,23.46-1.54,24.39,6.83s-15.09,19-29,19.63-26.9-4.26-26.9-4.26-15.81,14.26-37.51,10.85c0,0,3.44,27.28-1.69,49.29Z" style="fill: rgb(0, 255, 136); transform-origin: 275.419px 224.52px;" id="elizqks0vskl" class="animable"></path><path d="M243,267s7.16-22.94-9.76-45.4c0,0,12-24.21,6.95-51.61,0,0,17.28-24.86,14.65-45.7C251.73,99.91,236,93.53,234.19,98.53s-16.17,46.8-28.13,71c-13.76,27.83-13.85,46.85-10.9,68.24s13.52,43.71,13.52,43.71Z" style="fill: rgb(0, 255, 136); transform-origin: 224.361px 189.213px;" id="els6zjxqzlsl9" class="animable"></path><path d="M212.66,277.25c5.58-12.61-2.07-25.83-10.95-40.71,0,0,11.36-22.12,5.58-46.71,0,0,16.61-22.82,13.43-41.55C217,126.39,201.09,121,199.43,125.56s-14.93,42.59-26.24,64.69c-13,25.41-12.61,42.57-9.09,61.79s14.67,39.09,14.67,39.09Z" style="fill: rgb(0, 255, 136); transform-origin: 191.559px 207.597px;" id="el1goj25jfj59" class="animable"></path><path d="M202,400.2c26,45.78,96.22,45.88,125.64,7.24,31.62-41.54,30-94,14.47-144.45-2.56-8.31,1.24-44.43-3.93-49.6s-33.89,14.67-34.1,34.1,1.66,31.41,2.28,37.82c0,0-8.48,5.16-12.61,10.74,0,0-22.73-57-101.47-21.7a81.85,81.85,0,0,0-17.56-24.17s2.68-23.77-2.89-40.92c0,0,12.39-19.22,8.47-38s-21.49-25.83-24.59-21.9-2.9,20-7,32-8.77,37-9,66.6,22.82,66.07,32.12,88.6S194.55,387.08,202,400.2Z" style="fill: rgb(0, 255, 136); transform-origin: 246.3px 291.923px;" id="elfm568injnlu" class="animable"></path><path d="M238.13,293.23c1,5.54-.29,22,7.6,32.14S270.1,341,270.1,341s-.62-22.49-8-30.46S238.13,293.23,238.13,293.23Z" style="fill: rgb(255, 255, 255); transform-origin: 254.115px 317.115px;" id="ely9hexp36dvo" class="animable"></path><path d="M264.23,320.48a10.37,10.37,0,1,1-7.4-12.65A10.36,10.36,0,0,1,264.23,320.48Z" style="fill: rgb(55, 71, 79); transform-origin: 254.198px 317.86px;" id="el0ucd9uwr30yn" class="animable"></path><path d="M259.81,316.69a5.67,5.67,0,1,1-5.09-4.5,4.43,4.43,0,1,0,5.09,4.5Z" style="fill: rgb(0, 255, 136); transform-origin: 254.258px 317.841px;" id="el08pawxopb1p3" class="animable"></path><path d="M236.78,289.6c1.9,2.47,1.85,5.75,2.39,8.69s.79,6,1.27,8.93c1,5.74,2.17,11.81,5.42,16.68,5.18,7.2,12.95,12.27,21.21,15.47,2.57,1.11,6.75,2.19,6.06,5.84.18-3.57-3.81-4.09-6.39-4.95-11.49-3.5-23.27-11.51-26.16-23.82a90.27,90.27,0,0,1-2.35-18.06c-.25-3,.08-6.1-1.45-8.78Z" style="fill: rgb(38, 50, 56); transform-origin: 254.993px 317.405px;" id="el3ohbviqrkmo" class="animable"></path><path d="M238.13,293.23a88.24,88.24,0,0,1,13.74,7.14c4.4,2.86,8.73,5.93,11.73,10.42a46.14,46.14,0,0,1,5.17,14.77A75.5,75.5,0,0,1,270.1,341a148.79,148.79,0,0,0-2.81-15.1c-1.26-4.84-2.75-9.81-5.34-14.07s-7-7.25-10.93-10.19c-4.15-3-8.48-5.72-12.89-8.39Z" style="fill: rgb(38, 50, 56); transform-origin: 254.12px 317.115px;" id="elhseps6c5us6" class="animable"></path><path d="M241.12,300.63c2.08,8.27,3.42,17.08,8.22,24.31a19.85,19.85,0,0,0,2.24,2.94c-7.7-6.7-9.43-17.61-10.46-27.25Z" style="fill: rgb(38, 50, 56); transform-origin: 246.35px 314.255px;" id="elmtrjr3xp52h" class="animable"></path><path d="M262.74,319.46a33.85,33.85,0,0,1,4.72,15.76c-1.47-5.31-3.2-10.44-4.72-15.76Z" style="fill: rgb(38, 50, 56); transform-origin: 265.1px 327.34px;" id="elgsa4fg01rbe" class="animable"></path><path d="M263.82,327.6a7.16,7.16,0,0,1,1.76,5.8,14.34,14.34,0,0,1-1.76-5.8Z" style="fill: rgb(38, 50, 56); transform-origin: 264.736px 330.5px;" id="elxdyhkvy4n8" class="animable"></path><g id="elt5s1cwapoan"><g style="opacity: 0.2; transform-origin: 247.17px 261.109px;" class="animable"><path d="M293.77,296.05c-15.87,21.81-23.8,45.7-17.9,72.59a128.83,128.83,0,0,0,8.19,24.54,103.62,103.62,0,0,1-5.93-11.65c-13.08-30.15-6.5-61.64,15.64-85.48Z" id="elfyg55htelvf" class="animable" style="transform-origin: 282.607px 344.615px;"></path><path d="M206.15,296.05a55.38,55.38,0,0,1,44.45,49.28,84.07,84.07,0,0,1-2.91,31.73c1.64-11,2.18-22.07.46-33-3.74-23.35-19.78-40.61-42-48Z" id="elyho5g00iag" class="animable" style="transform-origin: 228.582px 336.555px;"></path><path d="M334.27,219.18c-1.93,3.39-2.65,7.19-3.29,11a97.84,97.84,0,0,0-1,17.18c.25,3.39-.07,7.85,3.7,9.25a11.29,11.29,0,0,0,5.58.51,9.93,9.93,0,0,1-6,.7,6.3,6.3,0,0,1-4.68-4.33,37.36,37.36,0,0,1-1.21-11.94c.45-7.49,1.56-16.68,6.89-22.35Z" id="eli1xyn6sn8ak" class="animable" style="transform-origin: 333.281px 238.592px;"></path><path d="M155.36,151.28c3.53,4.91,3.67,11.5,3.47,17.33a33.23,33.23,0,0,1-1.64,8.89,5.1,5.1,0,0,1-3.48,3.51,5.89,5.89,0,0,1-4.5-.94,6.43,6.43,0,0,0,4.08-.26,3.88,3.88,0,0,0,2-2.91,64.4,64.4,0,0,0,1-8.45c.23-5.75.68-11.53-.89-17.17Z" id="ele73z49nb7m" class="animable" style="transform-origin: 154.049px 166.201px;"></path><path d="M200.27,126.21c2.68,5.42,1.74,11.94.6,17.66a32.93,32.93,0,0,1-3.07,8.51,5.06,5.06,0,0,1-4,2.89,5.83,5.83,0,0,1-4.28-1.65,6.39,6.39,0,0,0,4.06.4,3.83,3.83,0,0,0,2.42-2.55,64,64,0,0,0,2.35-8.18c1.16-5.63,2.55-11.26,1.92-17.08Z" id="elf6jdswdj83s" class="animable" style="transform-origin: 195.763px 140.742px;"></path><path d="M345.13,191.65c-4.69,4.6-13.14,5.2-19.39,4.67-2.83-.32-6.56-.94-7.11-4.37a6.56,6.56,0,0,1,.74-4.11,7.8,7.8,0,0,0,.48,3.75,3.06,3.06,0,0,0,2.38,1.91c5,.78,10.28.4,15.32,0a26.69,26.69,0,0,0,7.58-1.81Z" id="elrb4yn2hoso" class="animable" style="transform-origin: 331.845px 192.16px;"></path><path d="M235.1,99.36c2.68,5.42,1.74,11.94.6,17.66a32.86,32.86,0,0,1-3.07,8.5,5.11,5.11,0,0,1-4,2.9,5.89,5.89,0,0,1-4.29-1.65,6.42,6.42,0,0,0,4.07.4,3.87,3.87,0,0,0,2.42-2.55,66.11,66.11,0,0,0,2.35-8.18c1.16-5.63,2.55-11.27,1.92-17.08Z" id="el6yz5dm9zj84" class="animable" style="transform-origin: 230.588px 113.892px;"></path><path d="M180.77,173.94a55.68,55.68,0,0,1-8.19,35.8l.08-.81A40.79,40.79,0,0,1,174.2,214c2.88,11.83,3,24.24,1.78,36.31l-.46-1.12a62,62,0,0,1,14.92,17.61,36.47,36.47,0,0,1,3,7.22l-1.63-.71A118.09,118.09,0,0,1,236.87,263a85.94,85.94,0,0,1,15.38,1,100.73,100.73,0,0,0-15.34-.13,129.4,129.4,0,0,0-37.12,8.53c-2.8,1.07-5.55,2.26-8.19,3.58-2.95-10.14-10.23-18.57-18.17-25.27,1.33-13.64,1.7-27.92-2.4-41.13l-.16-.46.24-.35a57.46,57.46,0,0,0,9.66-34.84Z" id="el4vo7jr996yo" class="animable" style="transform-origin: 211.56px 224.955px;"></path><path d="M218.67,140.47c3.91,8.06,3.24,17.61,1,26.07s-6.59,16.67-11.4,24l.18-1a72.47,72.47,0,0,1,.78,24.22,79.23,79.23,0,0,1-6.65,23.19l-.11-1a89.09,89.09,0,0,1,8.09,14.37c2.14,5,4,10.37,3.92,15.88-.5-5.44-2.57-10.54-5-15.34a100.3,100.3,0,0,0-8.91-14.16,86.44,86.44,0,0,0,6.2-23.25,75,75,0,0,0-.69-23.31l-.12-.54.3-.46c9.22-13.38,18.22-32.33,12.41-48.66Z" id="el74vuiscat32" class="animable" style="transform-origin: 211.024px 203.335px;"></path><path d="M241.4,183.68c.83,13.1-1.19,26.64-7.05,38.48l-.13-1.38a58.38,58.38,0,0,1,10.94,30.12,47,47,0,0,1-1.08,12.48l.11-2.77c.13-1.53,0-3.93-.05-5.49a65.77,65.77,0,0,0-11.94-32.77l-.48-.67.36-.7a76.76,76.76,0,0,0,5.82-15.73,130.72,130.72,0,0,0,3.5-21.57Z" id="elojfxi2fnzf" class="animable" style="transform-origin: 238.466px 223.53px;"></path><path d="M184.39,365c5.45,8.92,11.64,19.65,17.72,28.06,3.89,5.29,7.9,10.61,13.55,14.22-14.19-5-26.71-28.59-31.27-42.28Z" id="elwv89nha6r3" class="animable" style="transform-origin: 200.025px 386.14px;"></path><path d="M223.07,276.94c7.9,1.39,15.66,8.32,15.4,16.77-2.58-7.67-8.59-12.69-15.4-16.77Z" id="elxbydc9u01bb" class="animable" style="transform-origin: 230.773px 285.325px;"></path><path d="M243,419.22c14.53,3.43,32.5,3.41,45.24-5.2l.36-.26.43.11a57.4,57.4,0,0,0,22.35.74,42.77,42.77,0,0,0,7.31-2,35.46,35.46,0,0,1-7.14,2.74,50.67,50.67,0,0,1-23,.31l.79-.15c-13.05,9.14-31.84,9-46.36,3.7Z" id="elv0ydnj4in0e" class="animable" style="transform-origin: 280.835px 417.734px;"></path><path d="M177.8,328.22c6.26,13.9,12.39,27.85,19.6,41.28,4.39,7.93,8.82,16.08,15.45,22.4-15.65-11.58-29.23-45-35-63.68Z" id="elkqqbg0a3ro" class="animable" style="transform-origin: 195.325px 360.06px;"></path><path d="M306.38,285.31c3.54,6.83,8.53,12.69,14,18.08-6.54-2.54-13.48-11-14-18.08Z" id="elpbwkybw3rug" class="animable" style="transform-origin: 313.38px 294.35px;"></path><path d="M301.34,294.35c-7.48,9.08-13.33,19.18-18.73,29.6,2.87-11.43,9.31-22.39,18.73-29.6Z" id="elgt1bv1hzhaw" class="animable" style="transform-origin: 291.975px 309.15px;"></path><path d="M250.71,214.6a66.41,66.41,0,0,0,34.73-7.49c-9.21,8.15-23,10.8-34.73,7.49Z" id="eld044kxf1oh7" class="animable" style="transform-origin: 268.075px 211.549px;"></path><path d="M185,187.06a32.3,32.3,0,0,0,24.35,1.62c-7,5.4-18,4.58-24.35-1.62Z" id="elbyksab5ixsw" class="animable" style="transform-origin: 197.175px 189.664px;"></path><path d="M182.69,234.29a63.41,63.41,0,0,0,19.78,1.91c-6.16,3.21-14.29,2.24-19.78-1.91Z" id="el61dkdg97ik6" class="animable" style="transform-origin: 192.58px 236.2px;"></path><path d="M157.12,259a63.46,63.46,0,0,0,17.65-9.15c-3.43,6-10.78,9.64-17.65,9.15Z" id="elgu7tj4omsri" class="animable" style="transform-origin: 165.945px 254.447px;"></path><path d="M155.76,208.47a48.4,48.4,0,0,0,17.35-.14c-4.86,3.8-12.39,3.71-17.35.14Z" id="elj79q0kv34q" class="animable" style="transform-origin: 164.435px 209.747px;"></path><path d="M223,166a45.89,45.89,0,0,0,17.29,3.88c-5.7,2.69-13.2.85-17.29-3.88Z" id="eluj13ihz9doe" class="animable" style="transform-origin: 231.645px 168.562px;"></path><path d="M215.33,223.77a45.85,45.85,0,0,0,17.54-2.62c-4.36,4.56-12,5.56-17.54,2.62Z" id="elgnoo0agkp6q" class="animable" style="transform-origin: 224.1px 223.293px;"></path><path d="M241.7,209.68a31.35,31.35,0,0,0,11.67,8.72c-5.32.8-10.85-3.45-11.67-8.72Z" id="el4jifx7g5vae" class="animable" style="transform-origin: 247.535px 214.089px;"></path><path d="M285.58,194a31.42,31.42,0,0,0,5.11,13.66c-4.91-2.21-7.26-8.77-5.11-13.66Z" id="eloja7iiyqev" class="animable" style="transform-origin: 287.735px 200.83px;"></path></g></g><g id="elo5ep2g5t4w"><path d="M327.66,407.44a65.54,65.54,0,0,1-13.49,13.18C251,477.1,130.52,477,130.52,477a152.38,152.38,0,0,1-20.07-49.31c-6.23-28.86,9.33-64.14,9.74-65.05-5.26,23.69,6.41,70.5,18.53,83,9.7,10,91.16,13,150.36-13a146.4,146.4,0,0,0,23.31-12.71A105.47,105.47,0,0,0,327.66,407.44Z" style="opacity: 0.1; transform-origin: 218.32px 419.82px;" class="animable"></path></g><g id="elq31jru7dux"><g style="opacity: 0.6; transform-origin: 257.57px 243.625px;" class="animable"><path d="M256.14,269.32c13.45,1.48,25.22,12.24,30.61,24.28-1.76-1.7-3.47-3.68-5.2-5.39-7.39-7.64-15.72-14.33-25.41-18.89Z" style="fill: rgb(255, 255, 255); transform-origin: 271.445px 281.46px;" id="elj25dharj489" class="animable"></path><path d="M239.68,99.93c10.16,8.94,13.61,24.5,11.11,37.46-.46-2.41-.73-5-1.16-7.41-1.66-10.49-4.64-20.76-9.95-30Z" style="fill: rgb(255, 255, 255); transform-origin: 245.625px 118.66px;" id="el7tmcvm3i2vg" class="animable"></path><path d="M167.14,214.09c7.38,9.66,6.75,24.39,1.68,35,0-1.54.2-3,.31-4.51.82-10.22.92-20.52-2-30.47Z" style="fill: rgb(255, 255, 255); transform-origin: 169.894px 231.59px;" id="el8exbu5rwovs" class="animable"></path><path d="M211.58,133.79c7.38,9.67,6.75,24.39,1.68,35,0-1.54.2-3,.31-4.5.82-10.23.92-20.53-2-30.48Z" style="fill: rgb(255, 255, 255); transform-origin: 214.334px 151.29px;" id="el19zktr9wm4fh" class="animable"></path><path d="M245.25,187.78a38.56,38.56,0,0,1,14.6-5.87,58.77,58.77,0,0,1,28.22,1.39c2,.64,4,1.38,5.91,2.18-3-.27-6.27-.8-9.28-1-13.22-1.34-26.72-.81-39.45,3.35Z" style="fill: rgb(255, 255, 255); transform-origin: 269.615px 184.321px;" id="el2h7emec2iyx" class="animable"></path><path d="M340.28,280.25c11,33.75,11.05,74.93-5,107.07,12.09-34.32,11.84-71.66,5-107.07Z" style="fill: rgb(255, 255, 255); transform-origin: 341.645px 333.785px;" id="el3n7j6ylxq6p" class="animable"></path></g></g><polygon points="117.44 445.6 123.31 444.52 124.63 438.32 125.94 444.52 131.82 445.61 125.97 447.04 124.63 452.89 123.29 447.04 117.44 445.6" style="fill: rgb(255, 255, 255); transform-origin: 124.63px 445.605px;" id="el756r6mxesu" class="animable"></polygon><polygon points="338.52 366.9 344.39 365.82 345.71 359.62 347.02 365.82 352.89 366.9 347.04 368.33 345.71 374.19 344.37 368.33 338.52 366.9" style="fill: rgb(255, 255, 255); transform-origin: 345.705px 366.905px;" id="elr3l78a5iyb9" class="animable"></polygon><polygon points="173.85 283.36 179.73 282.27 181.04 276.08 182.35 282.27 188.23 283.36 182.38 284.79 181.04 290.64 179.7 284.79 173.85 283.36" style="fill: rgb(255, 255, 255); transform-origin: 181.04px 283.36px;" id="els9moy1krwqr" class="animable"></polygon><polygon points="291.74 200.86 295.03 200.25 295.76 196.79 296.5 200.25 299.78 200.86 296.51 201.66 295.76 204.93 295.01 201.66 291.74 200.86" style="fill: rgb(255, 255, 255); transform-origin: 295.76px 200.86px;" id="el5y4b7o4axrt" class="animable"></polygon><polygon points="157.97 242.66 161.25 242.05 161.99 238.59 162.72 242.05 166.01 242.66 162.74 243.46 161.99 246.73 161.24 243.46 157.97 242.66" style="fill: rgb(255, 255, 255); transform-origin: 161.99px 242.66px;" id="elcf5n61mdvoe" class="animable"></polygon><polygon points="310.73 332.33 314.01 331.73 314.75 328.26 315.48 331.73 318.76 332.34 315.49 333.14 314.75 336.41 314 333.14 310.73 332.33" style="fill: rgb(255, 255, 255); transform-origin: 314.745px 332.335px;" id="elm9vzq7reep" class="animable"></polygon><polygon points="232.82 177.43 236.1 176.82 236.84 173.35 237.57 176.82 240.85 177.43 237.58 178.23 236.84 181.5 236.09 178.23 232.82 177.43" style="fill: rgb(255, 255, 255); transform-origin: 236.835px 177.425px;" id="ely1mjz24dvde" class="animable"></polygon><polygon points="132.08 371.43 135.37 370.82 136.1 367.36 136.84 370.82 140.12 371.43 136.85 372.23 136.1 375.5 135.35 372.23 132.08 371.43" style="fill: rgb(255, 255, 255); transform-origin: 136.1px 371.43px;" id="el7yokinnadpv" class="animable"></polygon><path d="M266.08,409.82a1,1,0,0,0,0-1.9A1,1,0,0,0,266.08,409.82Z" style="fill: rgb(255, 255, 255); transform-origin: 266.08px 408.87px;" id="elzpg8tno4vv" class="animable"></path><path d="M149.21,381.71a1,1,0,0,0,0-1.91A1,1,0,0,0,149.21,381.71Z" style="fill: rgb(255, 255, 255); transform-origin: 149.21px 380.755px;" id="el2phrh51pfvv" class="animable"></path><path d="M338.52,277a1,1,0,0,0,0-1.9A1,1,0,0,0,338.52,277Z" style="fill: rgb(255, 255, 255); transform-origin: 338.52px 276.05px;" id="elh0vps873phw" class="animable"></path><path d="M167.88,175.06a.68.68,0,0,0,0-1.35A.68.68,0,0,0,167.88,175.06Z" style="fill: rgb(255, 255, 255); transform-origin: 167.88px 174.385px;" id="elmucpev90b9c" class="animable"></path><path d="M335.3,373.89a.68.68,0,0,0,0-1.35A.68.68,0,0,0,335.3,373.89Z" style="fill: rgb(255, 255, 255); transform-origin: 335.3px 373.215px;" id="elwbvv4s3xckc" class="animable"></path><path d="M178.29,453.56a.68.68,0,0,0,0-1.35A.68.68,0,0,0,178.29,453.56Z" style="fill: rgb(255, 255, 255); transform-origin: 178.29px 452.885px;" id="eloembvxoyxe" class="animable"></path><path d="M150.15,238a1.83,1.83,0,0,0,0-3.65A1.83,1.83,0,0,0,150.15,238Z" style="fill: rgb(255, 255, 255); transform-origin: 150.15px 236.175px;" id="elih91dhyhr99" class="animable"></path><path d="M243,150.1a1.83,1.83,0,0,0,0-3.65A1.83,1.83,0,0,0,243,150.1Z" style="fill: rgb(255, 255, 255); transform-origin: 243px 148.275px;" id="elssrqgbofe6q" class="animable"></path></g><g id="freepik--Flower--inject-6" class="animable" style="transform-origin: 321.234px 213.499px;"><path d="M334.75,102.45c12.05,17.54,23.07,40.33,23.9,61.89a48.17,48.17,0,0,1-17.76,41c-11.24,9.49-24.15,16.77-35.11,26.55A290.67,290.67,0,0,0,275.29,263c-14,16.21-25.77,34.47-32.74,54.78-3.66,10-5.36,20.57-6.5,31.16-2,18.08-2.53,36.19-3.1,54.48l-.77.06c-1.15-7.27-1.9-14.58-2.44-21.91a282.38,282.38,0,0,1-.6-33.17c.66-31.71,13.65-57.78,34-81.39,12-14,26.64-25.52,40.93-37.1,16.1-13.39,37.3-24.49,44.71-45.15,6.32-18.55,1.49-38.59-4.76-56.54-2.94-8.6-6.36-17-10-25.38l.68-.39Z" style="fill: rgb(55, 71, 79); transform-origin: 293.843px 252.965px;" id="el6nhycvqmy0u" class="animable"></path><path d="M327,136.67c-3.19-11.08,6-17.27,15.74-20.07s20.8-2.45,24,8.64-6.74,26.12-12.87,30C346.61,155.21,330.19,147.76,327,136.67Z" style="fill: rgb(0, 255, 136); transform-origin: 346.857px 135.184px;" id="elxcvxzdg3xfj" class="animable"></path><g id="el69xctvind6s"><path d="M327,136.67c-3.19-11.08,6-17.27,15.74-20.07s20.8-2.45,24,8.64-6.74,26.12-12.87,30C346.61,155.21,330.19,147.76,327,136.67Z" style="fill: rgb(255, 255, 255); opacity: 0.7; transform-origin: 346.857px 135.184px;" class="animable"></path></g><g id="el4qd3su8ijyw"><g style="opacity: 0.5; transform-origin: 345.28px 124.514px;" class="animable"><path d="M347.58,133.4a86,86,0,0,1-2.78-8.3,85.48,85.48,0,0,1-2.05-8.5c1.08,2.67,2,5.53,2.78,8.29s1.55,5.67,2.05,8.51Z" style="fill: rgb(0, 255, 136); transform-origin: 345.165px 125px;" id="elsl7cddlzx4a" class="animable"></path><path d="M352.14,130.27c-1.67-4.67-4.48-11.91-9.39-13.67a5.89,5.89,0,0,1,2.05.64c4.21,2.33,6.73,8.37,7.34,13Z" style="fill: rgb(0, 255, 136); transform-origin: 347.445px 123.435px;" id="el40b54tg4kkn" class="animable"></path><path d="M355.71,126.31c-1.5-3.86-4.14-7.43-8-9a16.29,16.29,0,0,0-3.94-1,10.22,10.22,0,0,1,4.13.43c4.08,1.3,7.09,5.33,7.78,9.58Z" style="fill: rgb(0, 255, 136); transform-origin: 349.74px 121.289px;" id="el09b165c6jbvl" class="animable"></path><path d="M358.71,121.69a14.38,14.38,0,0,0-10.24-5.54c-.9-.14-1.87-.15-2.77-.24a13.31,13.31,0,0,1,7.46.59,10,10,0,0,1,5.55,5.19Z" style="fill: rgb(0, 255, 136); transform-origin: 352.205px 118.659px;" id="eluoocais2o7d" class="animable"></path><path d="M342.05,133.18c-1.95-4.27-3-10.74-.7-15a5.51,5.51,0,0,1,1.4-1.63c-3.23,4.1-1.77,11.72-.7,16.58Z" style="fill: rgb(0, 255, 136); transform-origin: 341.396px 124.865px;" id="ela0176yw3kwb" class="animable"></path><path d="M336.92,131.72c-1.67-4-1.27-9,1.5-12.25a10.38,10.38,0,0,1,3.27-2.57,16.67,16.67,0,0,0-2.8,3c-2.41,3.36-2.75,7.79-2,11.86Z" style="fill: rgb(0, 255, 136); transform-origin: 338.809px 124.33px;" id="el4jc0ap9x8i" class="animable"></path><path d="M331.92,129.39a10.38,10.38,0,0,1,3.22-8.79,13.55,13.55,0,0,1,4.74-3c-.72.56-1.54,1.09-2.22,1.68a14.43,14.43,0,0,0-5.74,10.13Z" style="fill: rgb(0, 255, 136); transform-origin: 335.865px 123.505px;" id="el3frieq2yt6" class="animable"></path></g></g><path d="M347,153.88h0c-7.83-2.67-17.59-8.92-20-17.21-3.19-11.08,6-17.27,15.74-20.07C321.71,131.32,337.12,147.35,347,153.88Z" style="fill: rgb(0, 255, 136); transform-origin: 336.678px 135.24px;" id="elfyem2z6ofhp" class="animable"></path><g id="elaxm1s74h114"><path d="M347,153.88h0c-7.83-2.67-17.59-8.92-20-17.21-3.19-11.08,6-17.27,15.74-20.07C321.71,131.32,337.12,147.35,347,153.88Z" style="fill: rgb(255, 255, 255); opacity: 0.3; transform-origin: 336.678px 135.24px;" class="animable"></path></g><path d="M359,150.43h0c5.21-6.42,10.16-16.9,7.77-25.19-3.19-11.09-14.28-11.44-24-8.64C368.38,117.89,363.85,139.66,359,150.43Z" style="fill: rgb(0, 255, 136); transform-origin: 355.079px 132.779px;" id="elayp2ml9gzng" class="animable"></path><g id="elukh5rn282he"><path d="M359,150.43h0c5.21-6.42,10.16-16.9,7.77-25.19-3.19-11.09-14.28-11.44-24-8.64C368.38,117.89,363.85,139.66,359,150.43Z" style="fill: rgb(255, 255, 255); opacity: 0.3; transform-origin: 355.079px 132.779px;" class="animable"></path></g><path d="M294.25,41S283,53.8,290.17,66.67s23,10.57,23,10.57,5.37-9.7,2.63-19.86S298.77,46.48,294.25,41Z" style="fill: rgb(0, 255, 136); transform-origin: 302.18px 59.1997px;" id="elmigwizgqnlj" class="animable"></path><g id="el2cvhqvgfwyp"><path d="M294.25,41S283,53.8,290.17,66.67s23,10.57,23,10.57,5.37-9.7,2.63-19.86S298.77,46.48,294.25,41Z" style="fill: rgb(255, 255, 255); opacity: 0.7; transform-origin: 302.18px 59.1997px;" class="animable"></path></g><g id="el73d7z9mrkje"><g style="opacity: 0.4; transform-origin: 303.384px 63.295px;" class="animable"><path d="M313.1,77.26A25.86,25.86,0,0,0,313.4,58a39.44,39.44,0,0,0-2.68-6.08,22.59,22.59,0,0,1,3.5,5.76c2.75,6.17,2.83,13.89-1.12,19.56Z" style="fill: rgb(0, 255, 136); transform-origin: 313.454px 64.59px;" id="el1eg9zbk40gq" class="animable"></path><path d="M290.58,58.52A24.65,24.65,0,0,0,305.63,75a46.05,46.05,0,0,0,7.47,2.26,27.69,27.69,0,0,1-7.78-1.44c-7.57-2.41-14.06-9.21-14.74-17.3Z" style="fill: rgb(0, 255, 136); transform-origin: 301.84px 67.89px;" id="eli9b5cqik39n" class="animable"></path><path d="M305.76,49.32a26.12,26.12,0,0,1,8.39,24.28,17.64,17.64,0,0,1-1,3.66,33.32,33.32,0,0,0-7.34-27.94Z" style="fill: rgb(0, 255, 136); transform-origin: 310.169px 63.29px;" id="ellewankw7mva" class="animable"></path><path d="M293.22,54.64c1.95,7.69,6.24,14.57,12.9,19a32.84,32.84,0,0,0,7,3.63,19.35,19.35,0,0,1-3.84-1.11,25.6,25.6,0,0,1-16-21.51Z" style="fill: rgb(0, 255, 136); transform-origin: 303.17px 65.955px;" id="elisn1zil4rf" class="animable"></path><path d="M303.84,52.39c5.61,5.35,9.49,13.67,9.5,21.46a24.33,24.33,0,0,1-.24,3.41c-.05-.57-.1-1.13-.14-1.69,0-1-.28-2.39-.39-3.35a49.66,49.66,0,0,0-8.73-19.83Z" style="fill: rgb(0, 255, 136); transform-origin: 308.59px 64.825px;" id="elea6q3fvske" class="animable"></path><path d="M297.49,55.44c3.12,8.52,8.14,16.49,15.61,21.82-8.33-3.9-14.09-12.9-15.61-21.82Z" style="fill: rgb(0, 255, 136); transform-origin: 305.295px 66.35px;" id="elzk3ddduxz7" class="animable"></path><path d="M300.56,53.56c2.45,3.68,4.68,7.7,6.77,11.59s4.12,8,5.77,12.11c-2.45-3.67-4.68-7.69-6.77-11.58s-4.11-8-5.77-12.12Z" style="fill: rgb(0, 255, 136); transform-origin: 306.83px 65.41px;" id="elv1f07q2nw8j" class="animable"></path></g></g><path d="M313.18,77.24s-15.84,2.3-23-10.57S294.25,41,294.25,41c-3.12,8.19-4.13,12.82.12,18.54C298,64.45,312.26,67.09,313.18,77.24Z" style="fill: rgb(0, 255, 136); transform-origin: 300.487px 59.1997px;" id="elnqumnzuqkq" class="animable"></path><g id="elh7imks7k0fq"><path d="M313.18,77.24s-15.84,2.3-23-10.57S294.25,41,294.25,41c-3.12,8.19-4.13,12.82.12,18.54C298,64.45,312.26,67.09,313.18,77.24Z" style="fill: rgb(255, 255, 255); opacity: 0.3; transform-origin: 300.487px 59.1997px;" class="animable"></path></g><g id="eljdatc2admro"><path d="M315.81,57.38c2.74,10.15-2.63,19.86-2.63,19.86s-15.84,2.3-23-10.57a19.05,19.05,0,0,1-1.11-2.34,40.15,40.15,0,0,1,15.37-1.24A27.86,27.86,0,0,1,311.58,51,12.47,12.47,0,0,1,315.81,57.38Z" style="fill: rgb(0, 255, 136); opacity: 0.3; transform-origin: 302.829px 64.1997px;" class="animable"></path></g><path d="M257.58,112.17s4.92,14.7,16.81,21,35.38-2,41-12.8a40.25,40.25,0,0,0-26.11-22.54C269.65,92.55,257.58,112.17,257.58,112.17Z" style="fill: rgb(0, 255, 136); transform-origin: 286.485px 116.139px;" id="ellje6hybv2lb" class="animable"></path><g id="eluoda1n7cufe"><path d="M257.58,112.17s4.92,14.7,16.81,21,35.38-2,41-12.8a40.25,40.25,0,0,0-26.11-22.54C269.65,92.55,257.58,112.17,257.58,112.17Z" style="fill: rgb(255, 255, 255); opacity: 0.7; transform-origin: 286.485px 116.139px;" class="animable"></path></g><g id="elsxexdkeopl"><g style="opacity: 0.4; transform-origin: 293.37px 116.713px;" class="animable"><path d="M315.36,120.42a34.17,34.17,0,0,0-13-14,48.77,48.77,0,0,0-18.2-6.28,35.63,35.63,0,0,1,9.71,1.41c9.51,2.57,18.25,9.33,21.46,18.86Z" style="fill: rgb(0, 255, 136); transform-origin: 299.76px 110.28px;" id="eloup851i2nyr" class="animable"></path><path d="M273.42,129.2c10.39,5,22.88,3.73,32.66-2.11a61.34,61.34,0,0,0,9.28-6.67,39.73,39.73,0,0,1-19.48,12c-7.51,1.77-15.87.89-22.46-3.25Z" style="fill: rgb(0, 255, 136); transform-origin: 294.39px 126.853px;" id="elxm1l2ih89d" class="animable"></path><path d="M276.68,103.45A39.54,39.54,0,0,1,312,116a29.91,29.91,0,0,1,3.33,4.44,39.87,39.87,0,0,0-3.73-4c-9.48-9.17-21.84-13.43-34.95-12.92Z" style="fill: rgb(0, 255, 136); transform-origin: 295.99px 111.716px;" id="eljtqp9f02ihh" class="animable"></path><path d="M271.38,122.65c12.59,6,26.2,6.53,38.9.55a39.73,39.73,0,0,0,5.08-2.78,30,30,0,0,1-4.83,3.28,38.49,38.49,0,0,1-39.15-1Z" style="fill: rgb(0, 255, 136); transform-origin: 293.37px 124.492px;" id="el62oipj6moqd" class="animable"></path><path d="M278.45,108.44c11.42-1.2,23.92,1.76,33.16,8.69a36.63,36.63,0,0,1,3.75,3.29c-1.34-1-2.66-2-4.07-2.83-9.75-6.19-21.37-8.85-32.84-9.15Z" style="fill: rgb(0, 255, 136); transform-origin: 296.905px 114.3px;" id="eljg4r1doszt" class="animable"></path><path d="M276.17,118.48c10.92,3.92,22.9,5.64,34.33,3.2,1.64-.31,3.24-.8,4.86-1.26a35.92,35.92,0,0,1-8.41,2.71,48.82,48.82,0,0,1-30.78-4.65Z" style="fill: rgb(0, 255, 136); transform-origin: 295.765px 121.176px;" id="eljqxatbkxhjq" class="animable"></path><path d="M276.81,113.26c6.41.73,13,1.88,19.38,3s12.93,2.51,19.17,4.13c-6.41-.73-13-1.87-19.38-3s-12.92-2.52-19.17-4.14Z" style="fill: rgb(0, 255, 136); transform-origin: 296.085px 116.82px;" id="ela0nu1gy2pk5" class="animable"></path></g></g><path d="M315.35,120.39c-5.58,10.81-29.06,19.13-41,12.8-9.5-5.05-14.56-15.46-16.2-19.43,10.95,14.45,26.36,16,35.76,13S309.9,119.27,315.35,120.39Z" style="fill: rgb(0, 255, 136); transform-origin: 286.75px 124.572px;" id="elb9t23nbwjxb" class="animable"></path><g id="elnv01rxauup"><path d="M315.35,120.39c-5.58,10.81-29.06,19.13-41,12.8-9.5-5.05-14.56-15.46-16.2-19.43,10.95,14.45,26.36,16,35.76,13S309.9,119.27,315.35,120.39Z" style="fill: rgb(255, 255, 255); opacity: 0.3; transform-origin: 286.75px 124.572px;" class="animable"></path></g><g id="el33s1dl73me2"><path d="M315.35,120.39c-4.28,8.3-19.14,15.14-31.18,15a57.31,57.31,0,0,1,2.76-13.87c-10.46-5.09-13.8-17.49-14.71-22.25a24.49,24.49,0,0,1,17-1.41A40.25,40.25,0,0,1,315.35,120.39Z" style="fill: rgb(0, 255, 136); opacity: 0.7; transform-origin: 293.785px 116.173px;" class="animable"></path></g><path d="M343,117.64c3.9,15.37-8.11,41.24-56.63,40.43,0,0-6.77-26.2,8.32-39.91C320.48,94.77,343,117.64,343,117.64Z" style="fill: rgb(0, 255, 136); transform-origin: 314.269px 132.858px;" id="elsxknl4s0w" class="animable"></path><g id="el99kxq56gbkm"><path d="M343,117.64c3.9,15.37-8.11,41.24-56.63,40.43,0,0-6.77-26.2,8.32-39.91C320.48,94.77,343,117.64,343,117.64Z" style="fill: rgb(255, 255, 255); opacity: 0.7; transform-origin: 314.269px 132.858px;" class="animable"></path></g><path d="M343,117.64c3.9,15.37-8.11,41.24-56.63,40.43,6.49-1,29.4-4.55,40.09-16.74C334.62,132.05,331.5,118.27,343,117.64Z" style="fill: rgb(0, 255, 136); transform-origin: 315.026px 137.864px;" id="elk6d233a72q" class="animable"></path><g id="eld7mdabp80e"><path d="M343,117.64c3.9,15.37-8.11,41.24-56.63,40.43,6.49-1,29.4-4.55,40.09-16.74C334.62,132.05,331.5,118.27,343,117.64Z" style="fill: rgb(255, 255, 255); opacity: 0.3; transform-origin: 315.026px 137.864px;" class="animable"></path></g><g id="elbqxdi6wf3l5"><g style="opacity: 0.4; transform-origin: 317.375px 133.462px;" class="animable"><path d="M343,117.64a41.31,41.31,0,0,0-23-5.39,58.75,58.75,0,0,0-23,6.4A45.09,45.09,0,0,1,308,113.43c11.54-3.94,25-3.16,35,4.21Z" style="fill: rgb(0, 255, 136); transform-origin: 320px 114.867px;" id="elcnb3lssows6" class="animable"></path><path d="M306.32,155.83a41.21,41.21,0,0,0,24.27-13.18c6.34-7,10.13-15.9,12.45-25a56.29,56.29,0,0,1-3.93,13.69c-5.52,13.22-18.21,23.75-32.79,24.5Z" style="fill: rgb(0, 255, 136); transform-origin: 324.68px 136.745px;" id="elej89ayskxqr" class="animable"></path><path d="M291.7,127.26a49.58,49.58,0,0,1,44.83-11.77,36,36,0,0,1,6.51,2.15,55.94,55.94,0,0,0-26.83-1.5,59.08,59.08,0,0,0-24.51,11.12Z" style="fill: rgb(0, 255, 136); transform-origin: 317.37px 120.724px;" id="eljx4wljhqkqg" class="animable"></path><path d="M299.68,150.56c17.09-2.44,31.45-11.5,40.17-26.51a46.11,46.11,0,0,0,3.19-6.41,44.22,44.22,0,0,1-6.46,12.85,48,48,0,0,1-36.9,20.07Z" style="fill: rgb(0, 255, 136); transform-origin: 321.36px 134.1px;" id="ele3gyp2v7zfl" class="animable"></path><path d="M297,131.12c10.83-9,25.77-14.73,39.93-14.16a43.24,43.24,0,0,1,6.12.68,63.72,63.72,0,0,0-10.7.16c-12.67,1.29-24.78,6.31-35.35,13.32Z" style="fill: rgb(0, 255, 136); transform-origin: 320.025px 124.021px;" id="elgo1pfi202au" class="animable"></path><path d="M301.66,143c13.93-3.43,27.44-10.08,37.35-20.61,1.44-1.48,2.73-3.1,4-4.72a46.42,46.42,0,0,1-5.67,7.44c-9.22,9.71-22.49,16.09-35.71,17.89Z" style="fill: rgb(0, 255, 136); transform-origin: 322.32px 130.335px;" id="elsnmpqfiieak" class="animable"></path><path d="M298.68,137.19C313.09,130,328,123.41,343,117.64c-14.4,7.19-29.33,13.77-44.36,19.55Z" style="fill: rgb(0, 255, 136); transform-origin: 320.82px 127.415px;" id="elazkeefx9a1c" class="animable"></path></g></g><g id="elhsbaczycue"><path d="M343,117.64c0,.17.09.35.13.53-13.87,6-24.28,3.65-24.28,3.65-16.28,6.28-25.85,3.55-29.27,2.69a26.57,26.57,0,0,1,5.11-6.35C320.48,94.77,343,117.64,343,117.64Z" style="fill: rgb(0, 255, 136); opacity: 0.7; transform-origin: 316.355px 116.735px;" class="animable"></path></g><path d="M269.37,65s-4.69,44.08,20.34,54.42,41.77-7,41.77-7,4.57-31.81-25.56-45.34C296.16,62.72,284.69,66.34,269.37,65Z" style="fill: rgb(0, 255, 136); transform-origin: 300.375px 93.7796px;" id="eltys5nyoays" class="animable"></path><g id="el1m5p4x49t9x"><path d="M269.37,65s-4.69,44.08,20.34,54.42,41.77-7,41.77-7,4.57-31.81-25.56-45.34C296.16,62.72,284.69,66.34,269.37,65Z" style="fill: rgb(255, 255, 255); opacity: 0.7; transform-origin: 300.375px 93.7796px;" class="animable"></path></g><g id="el4q8e8fz66y6"><g style="opacity: 0.4; transform-origin: 305.761px 94.8403px;" class="animable"><path d="M331.48,112.45a41.54,41.54,0,0,0-7.11-22.53,58.74,58.74,0,0,0-17.23-16.48,45.06,45.06,0,0,1,10.08,6.74c9.26,7.9,15.48,19.91,14.26,32.27Z" style="fill: rgb(0, 255, 136); transform-origin: 319.386px 92.945px;" id="elyrv4uxxxff" class="animable"></path><path d="M279.89,100.37a41.19,41.19,0,0,0,23.72,14.14c9.26,1.88,18.85.59,27.87-2.06a56.3,56.3,0,0,1-13.79,3.61c-14.19,2-29.71-3.53-37.8-15.69Z" style="fill: rgb(0, 255, 136); transform-origin: 305.685px 108.415px;" id="el7qk6yg61v0k" class="animable"></path><path d="M297,73.22a49.56,49.56,0,0,1,33,32.54,36.7,36.7,0,0,1,1.48,6.69,56.2,56.2,0,0,0-12.41-23.84A59,59,0,0,0,297,73.22Z" style="fill: rgb(0, 255, 136); transform-origin: 314.24px 92.835px;" id="el4wogu1tx59x" class="animable"></path><path d="M281,92c10.83,13.45,25.94,21.18,43.31,21a45.07,45.07,0,0,0,7.14-.53,44.1,44.1,0,0,1-14.35,1A48,48,0,0,1,281,92Z" style="fill: rgb(0, 255, 136); transform-origin: 306.225px 102.833px;" id="el3qoqvzicvqu" class="animable"></path><path d="M296.38,79.73c13.25,4.72,25.83,14.66,32.56,27.11a46.34,46.34,0,0,1,2.54,5.61,65,65,0,0,0-5.6-9.12c-7.59-10.23-18.08-18.09-29.5-23.6Z" style="fill: rgb(0, 255, 136); transform-origin: 313.93px 96.09px;" id="eluqgyc54vccp" class="animable"></path><path d="M288.57,89.8c10.06,10.22,22.67,18.45,36.79,21.6,2,.48,4.06.76,6.12,1a46.2,46.2,0,0,1-9.3-1.07c-13.05-3-25.33-11.13-33.61-21.58Z" style="fill: rgb(0, 255, 136); transform-origin: 310.025px 101.075px;" id="el6plbxh6fowb" class="animable"></path><path d="M292,84.29c13.54,8.71,26.82,18.18,39.46,28.16-13.54-8.71-26.82-18.19-39.46-28.16Z" style="fill: rgb(0, 255, 136); transform-origin: 311.73px 98.37px;" id="elv1h7ojve8us" class="animable"></path></g></g><path d="M331.48,112.45s-16.73,17.32-41.77,7c-13.93-5.75-18.65-22-20.11-35.19,4.59,14.74,17.18,25,29,25.5S325,101,331.48,112.45Z" style="fill: rgb(0, 255, 136); transform-origin: 300.54px 103.496px;" id="eltxw9f7psswi" class="animable"></path><g id="el4zkibdc4g96"><path d="M331.48,112.45s-16.73,17.32-41.77,7c-13.93-5.75-18.65-22-20.11-35.19,4.59,14.74,17.18,25,29,25.5S325,101,331.48,112.45Z" style="fill: rgb(255, 255, 255); opacity: 0.3; transform-origin: 300.54px 103.496px;" class="animable"></path></g><g id="elf6gl3kqoghk"><path d="M331.48,112.45a38,38,0,0,1-15,8.64A36.62,36.62,0,0,1,300.6,94.41c-1.22-11,3-22.62,5-27.44l.32.14C336,80.64,331.48,112.45,331.48,112.45Z" style="fill: rgb(0, 255, 136); opacity: 0.3; transform-origin: 316.052px 94.03px;" class="animable"></path></g><path d="M343.65,26.79s16.34,4.86,17.1,19.57-13.88,21.19-13.88,21.19-9.71-5.37-12.78-15.43S342.73,33.83,343.65,26.79Z" style="fill: rgb(0, 255, 136); transform-origin: 347.178px 47.17px;" id="ele9rk7zafzg" class="animable"></path><g id="eljmwf786gro"><path d="M343.65,26.79s16.34,4.86,17.1,19.57-13.88,21.19-13.88,21.19-9.71-5.37-12.78-15.43S342.73,33.83,343.65,26.79Z" style="fill: rgb(255, 255, 255); opacity: 0.7; transform-origin: 347.178px 47.17px;" class="animable"></path></g><g id="elygj0c4hsb5o"><g style="opacity: 0.4; transform-origin: 346.683px 52.68px;" class="animable"><path d="M347,67.53c-6.36-2.72-10.39-9.29-11.35-16a22.41,22.41,0,0,1-.09-6.74,39.71,39.71,0,0,0,1,6.57A25.92,25.92,0,0,0,347,67.53Z" style="fill: rgb(0, 255, 136); transform-origin: 341.174px 56.16px;" id="el5acmifwkmnl" class="animable"></path><path d="M356.07,39.67c3.72,7.23,1.83,16.43-3.3,22.5A27.92,27.92,0,0,1,347,67.53a45.88,45.88,0,0,0,5.12-5.89,24.72,24.72,0,0,0,4-22Z" style="fill: rgb(0, 255, 136); transform-origin: 352.509px 53.585px;" id="eluguvwxnexob" class="animable"></path><path d="M338.31,40A33.38,33.38,0,0,0,347,67.53,19.54,19.54,0,0,1,344.11,65a26.17,26.17,0,0,1-5.8-25Z" style="fill: rgb(0, 255, 136); transform-origin: 342.129px 53.765px;" id="el11blcm0nm4c" class="animable"></path><path d="M351.77,37.8a25.62,25.62,0,0,1-2.16,26.74,19.41,19.41,0,0,1-2.66,3,32.83,32.83,0,0,0,4-6.79c3.29-7.28,3.27-15.39.84-22.94Z" style="fill: rgb(0, 255, 136); transform-origin: 350.751px 52.67px;" id="el7x96jo59bkh" class="animable"></path><path d="M341.57,41.54A49.51,49.51,0,0,0,344.72,63c.24.51.81,1.8,1,2.3.39.72.82,1.52,1.19,2.26a24.7,24.7,0,0,1-2-2.76c-4.13-6.61-5.27-15.73-3.36-23.23Z" style="fill: rgb(0, 255, 136); transform-origin: 343.781px 54.55px;" id="elrarwcisujhm" class="animable"></path><path d="M348.57,40.74c3.45,8.37,3.36,19-1.62,26.79,3.5-8.49,3.51-17.91,1.62-26.79Z" style="fill: rgb(0, 255, 136); transform-origin: 348.952px 54.135px;" id="el9pfzqpv834" class="animable"></path><path d="M345,40.79c.77,4.34,1.19,8.92,1.54,13.33s.56,9,.43,13.41c-.78-4.35-1.2-8.92-1.55-13.33s-.55-9-.42-13.41Z" style="fill: rgb(0, 255, 136); transform-origin: 345.984px 54.16px;" id="elakv7hehszkb" class="animable"></path></g></g><path d="M346.87,67.55s14.64-6.47,13.88-21.19-17.1-19.57-17.1-19.57c7,5.28,10.31,8.67,9.75,15.78C352.92,48.65,342.25,58.46,346.87,67.55Z" style="fill: rgb(0, 255, 136); transform-origin: 352.214px 47.17px;" id="elzzocikh1zhb" class="animable"></path><g id="el8v36bv3dmgp"><path d="M346.87,67.55s14.64-6.47,13.88-21.19-17.1-19.57-17.1-19.57c7,5.28,10.31,8.67,9.75,15.78C352.92,48.65,342.25,58.46,346.87,67.55Z" style="fill: rgb(255, 255, 255); opacity: 0.3; transform-origin: 352.214px 47.17px;" class="animable"></path></g><g id="el2qvuphe61fe"><path d="M334.09,52.12c3.07,10.06,12.78,15.43,12.78,15.43s14.64-6.47,13.88-21.19a18.86,18.86,0,0,0-.31-2.56,40.18,40.18,0,0,0-13.68,7.11,27.77,27.77,0,0,0-12.46-6.42A12.39,12.39,0,0,0,334.09,52.12Z" style="fill: rgb(0, 255, 136); opacity: 0.3; transform-origin: 347.183px 55.675px;" class="animable"></path></g><path d="M412.54,67.59s3.63,15.06-3.08,26.75-31,17.11-41.5,10.91a40.22,40.22,0,0,1,10.15-33C391.88,57.38,412.54,67.59,412.54,67.59Z" style="fill: rgb(0, 255, 136); transform-origin: 390.529px 86.0074px;" id="eladiq2b1mepw" class="animable"></path><g id="el6s7n1zh4qd8"><path d="M412.54,67.59s3.63,15.06-3.08,26.75-31,17.11-41.5,10.91a40.22,40.22,0,0,1,10.15-33C391.88,57.38,412.54,67.59,412.54,67.59Z" style="fill: rgb(255, 255, 255); opacity: 0.7; transform-origin: 390.529px 86.0074px;" class="animable"></path></g><g id="elihxh05f4bog"><g style="opacity: 0.4; transform-origin: 387.732px 88.6211px;" class="animable"><path d="M368,105.28c-2.35-9.78,1.47-20.14,8.15-27.37a35.43,35.43,0,0,1,7.48-6.36,48.8,48.8,0,0,0-12.08,15A34.14,34.14,0,0,0,368,105.28Z" style="fill: rgb(0, 255, 136); transform-origin: 375.467px 88.415px;" id="elstw3tc68pxf" class="animable"></path><path d="M408.16,90.43c-3.38,7-10,12.21-17.3,14.69a39.57,39.57,0,0,1-22.89.16,60.77,60.77,0,0,0,11.41.72c11.38-.24,22.62-5.83,28.78-15.57Z" style="fill: rgb(0, 255, 136); transform-origin: 388.065px 98.6611px;" id="elfyg3jaa8vm9" class="animable"></path><path d="M391.72,70.35C380.34,76.88,372.14,87.07,369,99.87a39.37,39.37,0,0,0-1,5.41,29.35,29.35,0,0,1,.46-5.53,39.54,39.54,0,0,1,23.29-29.4Z" style="fill: rgb(0, 255, 136); transform-origin: 379.874px 87.815px;" id="elk7yi48swcp" class="animable"></path><path d="M406.41,83.8a38.52,38.52,0,0,1-32.61,21.7,29.86,29.86,0,0,1-5.83-.22,38.42,38.42,0,0,0,5.78-.34c13.93-1.69,25.2-9.35,32.66-21.14Z" style="fill: rgb(0, 255, 136); transform-origin: 387.19px 94.677px;" id="el8t7u8i9ayib" class="animable"></path><path d="M392.87,75.52c-9.55,6.35-18,14.78-23,25.2-.74,1.48-1.33,3-1.94,4.56a35.4,35.4,0,0,1,1.43-4.78c4.14-10.78,13.16-19.92,23.47-25Z" style="fill: rgb(0, 255, 136); transform-origin: 380.4px 90.39px;" id="elntqg6zetm5n" class="animable"></path><path d="M400.14,82.81c-5.91,10-16,18.36-27.22,21.49a35,35,0,0,1-4.95,1c1.62-.46,3.23-.9,4.79-1.51,11-4,20.21-11.83,27.38-21Z" style="fill: rgb(0, 255, 136); transform-origin: 384.055px 94.045px;" id="elx1fwxt27s5" class="animable"></path><path d="M396.82,78.74c-4.43,4.68-9.31,9.29-14,13.69S373,101.26,368,105.28c4.42-4.69,9.31-9.29,14-13.69s9.77-8.83,14.81-12.85Z" style="fill: rgb(0, 255, 136); transform-origin: 382.41px 92.01px;" id="elq1uj9wumg2" class="animable"></path></g></g><path d="M368,105.26c10.47,6.19,34.79.76,41.5-10.92,5.37-9.34,4.12-20.84,3.4-25.08-1.6,18.07-13.86,27.52-23.38,30S372,101.41,368,105.26Z" style="fill: rgb(0, 255, 136); transform-origin: 390.78px 88.5526px;" id="el6nko38hts5q" class="animable"></path><g id="el37xyktn7m0d"><path d="M368,105.26c10.47,6.19,34.79.76,41.5-10.92,5.37-9.34,4.12-20.84,3.4-25.08-1.6,18.07-13.86,27.52-23.38,30S372,101.41,368,105.26Z" style="fill: rgb(255, 255, 255); opacity: 0.3; transform-origin: 390.78px 88.5526px;" class="animable"></path></g><g id="ely3yuiiq5vt"><path d="M368,105.26c8,4.75,24.26,2.65,34.38-3.88a57.68,57.68,0,0,0-9.7-10.28c6.15-9.87,2.38-22.15.63-26.67a24.47,24.47,0,0,0-15.16,7.86A40.25,40.25,0,0,0,368,105.26Z" style="fill: rgb(0, 255, 136); opacity: 0.7; transform-origin: 384.981px 86.1359px;" class="animable"></path></g><path d="M343,117.64c4.87,15.1,28.79,30.62,69.46,4.16,0,0-8.19-25.8-28.26-29.39C350,86.28,343,117.64,343,117.64Z" style="fill: rgb(0, 255, 136); transform-origin: 377.73px 113.867px;" id="elmn83w4404b7" class="animable"></path><g id="el6wke7p2nizr"><path d="M343,117.64c4.87,15.1,28.79,30.62,69.46,4.16,0,0-8.19-25.8-28.26-29.39C350,86.28,343,117.64,343,117.64Z" style="fill: rgb(255, 255, 255); opacity: 0.7; transform-origin: 377.73px 113.867px;" class="animable"></path></g><path d="M343,117.64c4.87,15.1,28.79,30.62,69.46,4.16-6,2.6-27.32,11.77-42.86,7.11C357.83,125.37,353.15,112,343,117.64Z" style="fill: rgb(0, 255, 136); transform-origin: 377.73px 126.194px;" id="el1xghg9hwvwm" class="animable"></path><g id="eljmqnlt06kyk"><path d="M343,117.64c4.87,15.1,28.79,30.62,69.46,4.16-6,2.6-27.32,11.77-42.86,7.11C357.83,125.37,353.15,112,343,117.64Z" style="fill: rgb(255, 255, 255); opacity: 0.3; transform-origin: 377.73px 126.194px;" class="animable"></path></g><g id="el59t2rwax5l"><g style="opacity: 0.4; transform-origin: 370.135px 114.413px;" class="animable"><path d="M343,117.64c4.58-11.57,15.57-19.39,27.44-22.19a45.26,45.26,0,0,1,12-1.38,58.67,58.67,0,0,0-22.86,6.78A41.4,41.4,0,0,0,343,117.64Z" style="fill: rgb(0, 255, 136); transform-origin: 362.72px 105.851px;" id="eltedu64xzbq9" class="animable"></path><path d="M394.45,130.48c-12.76,7.11-29.1,4.94-40.8-3.33A56.77,56.77,0,0,1,343,117.64c6.81,6.48,14.75,12,23.84,14.57a41.23,41.23,0,0,0,27.57-1.73Z" style="fill: rgb(0, 255, 136); transform-origin: 368.725px 126.202px;" id="elrfqtnp9owjd" class="animable"></path><path d="M391.64,98.5c-13.78-1.17-27.23,1.93-38.54,10A53.41,53.41,0,0,0,343,117.64a36.8,36.8,0,0,1,4.37-5.28A49.59,49.59,0,0,1,391.64,98.5Z" style="fill: rgb(0, 255, 136); transform-origin: 367.32px 107.655px;" id="el5c9vwahjp9s" class="animable"></path><path d="M397.27,122.48a48,48,0,0,1-41.93,2.61,44.27,44.27,0,0,1-12.3-7.45,44.94,44.94,0,0,0,6.11,3.73c15.37,8.09,32.34,8.13,48.12,1.11Z" style="fill: rgb(0, 255, 136); transform-origin: 370.155px 123.174px;" id="elyunad6vjaq9" class="animable"></path><path d="M389.21,104.59c-12.67-.32-25.6,1.86-37,7.5a64.64,64.64,0,0,0-9.15,5.55,44.62,44.62,0,0,1,4.83-3.83c11.68-8,27.39-11.09,41.34-9.22Z" style="fill: rgb(0, 255, 136); transform-origin: 366.145px 110.85px;" id="el056v5hgrrnzd" class="animable"></path><path d="M391.56,117.11c-12.5,5.67-28,7.31-41.27,3.39a44.77,44.77,0,0,1-7.25-2.86c2,.68,3.91,1.37,5.92,1.85,14,3.66,29,2.11,42.6-2.38Z" style="fill: rgb(0, 255, 136); transform-origin: 367.3px 119.878px;" id="elc0k1eozjw8d" class="animable"></path><path d="M391,110.63c-15.8,3.09-31.95,5.45-48,7,15.8-3.1,31.94-5.45,48-7Z" style="fill: rgb(0, 255, 136); transform-origin: 367px 114.13px;" id="elsc6d57o67j" class="animable"></path></g></g><g id="el2k6q9huzvv7"><path d="M343,117.64l.18.51c14.91-2.32,22.5-9.81,22.5-9.81C382.85,105,389.5,97.62,392,95.07a26.65,26.65,0,0,0-7.71-2.66C350,86.28,343,117.64,343,117.64Z" style="fill: rgb(0, 255, 136); opacity: 0.7; transform-origin: 367.5px 104.883px;" class="animable"></path></g><path d="M377.49,33.91s27.39,34.84,11.68,56.91-39.09,16.28-39.09,16.28-20.77-24.52-2.45-52C353.57,46.21,365.21,43.17,377.49,33.91Z" style="fill: rgb(0, 255, 136); transform-origin: 367.055px 70.8478px;" id="el85p0ofgrc2u" class="animable"></path><g id="eli58y7i59vqp"><path d="M377.49,33.91s27.39,34.84,11.68,56.91-39.09,16.28-39.09,16.28-20.77-24.52-2.45-52C353.57,46.21,365.21,43.17,377.49,33.91Z" style="fill: rgb(255, 255, 255); opacity: 0.7; transform-origin: 367.055px 70.8478px;" class="animable"></path></g><g id="elzmegshtv4qq"><g style="opacity: 0.4; transform-origin: 365.18px 81.32px;" class="animable"><path d="M350.08,107.1c-7.61-9.82-8.72-23.3-5.07-34.92a45.07,45.07,0,0,1,5-11.06,58.55,58.55,0,0,0-5.84,23.12,41.43,41.43,0,0,0,5.95,22.86Z" style="fill: rgb(0, 255, 136); transform-origin: 346.56px 84.11px;" id="elhhojmgn4s4j" class="animable"></path><path d="M387.36,69.45c-.39,14.6-10.6,27.54-23.69,33.38a56.66,56.66,0,0,1-13.59,4.27c9.05-2.55,17.86-6.55,24.7-13.07a41.13,41.13,0,0,0,12.58-24.58Z" style="fill: rgb(0, 255, 136); transform-origin: 368.72px 88.275px;" id="el4xtsnufqdg7" class="animable"></path><path d="M358.44,55.54a59.23,59.23,0,0,0-10.52,24.77,56.13,56.13,0,0,0,2.16,26.79,37,37,0,0,1-2.31-6.45,49.59,49.59,0,0,1,10.67-45.11Z" style="fill: rgb(0, 255, 136); transform-origin: 352.309px 81.32px;" id="el2xwt9tpmmiu" class="animable"></path><path d="M381.93,62.94a48,48,0,0,1-19.16,37.38,43.87,43.87,0,0,1-12.69,6.78,46.59,46.59,0,0,0,6.33-3.34c14.8-9.1,23.5-23.67,25.52-40.82Z" style="fill: rgb(0, 255, 136); transform-origin: 366.005px 85.02px;" id="elcoqxxep1ljm" class="animable"></path><path d="M362.43,60.73C355.68,71.47,351,83.7,350,96.4a64.8,64.8,0,0,0,.1,10.7,46.26,46.26,0,0,1-.83-6.11c-.92-14.12,4.46-29.22,13.18-40.26Z" style="fill: rgb(0, 255, 136); transform-origin: 355.809px 83.915px;" id="el086279ndl45m" class="animable"></path><path d="M374.39,65.11c-1.47,13.25-7.53,26.69-17,36.14a46.7,46.7,0,0,1-7.3,5.85c1.59-1.34,3.18-2.67,4.62-4.14C365,92.79,371.3,79.12,374.39,65.11Z" style="fill: rgb(0, 255, 136); transform-origin: 362.24px 86.105px;" id="el5euoip4kaet" class="animable"></path><path d="M368.54,62.27c-5.41,15.17-11.62,30.25-18.46,44.83,5.4-15.17,11.62-30.25,18.46-44.83Z" style="fill: rgb(0, 255, 136); transform-origin: 359.31px 84.685px;" id="elc0le0vz2ktc" class="animable"></path></g></g><path d="M350.08,107.1s23.38,5.78,39.09-16.28c8.74-12.28,4.14-28.51-1.67-40.5,3.95,14.92-1.26,30.31-11.05,37S349.5,93.89,350.08,107.1Z" style="fill: rgb(0, 255, 136); transform-origin: 372.048px 79.0517px;" id="el5tmaodmhwjn" class="animable"></path><g id="elmegisutm7qc"><path d="M350.08,107.1s23.38,5.78,39.09-16.28c8.74-12.28,4.14-28.51-1.67-40.5,3.95,14.92-1.26,30.31-11.05,37S349.5,93.89,350.08,107.1Z" style="fill: rgb(255, 255, 255); opacity: 0.3; transform-origin: 372.048px 79.0517px;" class="animable"></path></g><g id="elr2ueg7xx7ip"><path d="M350.08,107.1a37.81,37.81,0,0,0,17.33-.68,36.55,36.55,0,0,0-.76-31c-4.79-9.94-14.55-17.58-18.82-20.59-.07.1-.13.2-.2.29C329.31,82.58,350.08,107.1,350.08,107.1Z" style="fill: rgb(0, 255, 136); opacity: 0.3; transform-origin: 355.285px 81.3131px;" class="animable"></path></g><path d="M364.25,80.27c6.42,22.3-6.77,33.21-21.21,37.37s-31.41,1.91-37.82-20.39,6.64-50.54,15.44-57.41C331.76,41,357.84,58,364.25,80.27Z" style="fill: rgb(0, 255, 136); transform-origin: 334.714px 79.5929px;" id="ellt9kss4rth" class="animable"></path><g id="elikoom0f5p1k"><path d="M364.25,80.27c6.42,22.3-6.77,33.21-21.21,37.37s-31.41,1.91-37.82-20.39,6.64-50.54,15.44-57.41C331.76,41,357.84,58,364.25,80.27Z" style="fill: rgb(255, 255, 255); opacity: 0.7; transform-origin: 334.714px 79.5929px;" class="animable"></path></g><g id="elss2stv9nc4"><g style="opacity: 0.5; transform-origin: 339.433px 106.36px;" class="animable"><path d="M336.13,93.61a125.16,125.16,0,0,1,4,11.86A123.75,123.75,0,0,1,343,117.64a123.31,123.31,0,0,1-4-11.86,123.75,123.75,0,0,1-2.91-12.17Z" style="fill: rgb(0, 255, 136); transform-origin: 339.545px 105.625px;" id="el0d8t7ur3ng9c" class="animable"></path><path d="M329.32,98.16c2.41,6.68,6.46,17,13.72,19.48a8.6,8.6,0,0,1-3-.89c-6.21-3.28-9.84-11.91-10.69-18.59Z" style="fill: rgb(0, 255, 136); transform-origin: 336.18px 107.9px;" id="elp9b7nx9wth" class="animable"></path><path d="M324,103.89c2.17,5.52,6,10.61,11.68,12.8a25,25,0,0,0,5.83,1.4,15.71,15.71,0,0,1-6.12-.57c-6-1.8-10.43-7.53-11.39-13.63Z" style="fill: rgb(0, 255, 136); transform-origin: 332.755px 111.032px;" id="el8s528204xf3" class="animable"></path><path d="M319.46,110.58c3.54,4.76,9.32,7.24,15.1,7.79,1.32.18,2.76.19,4.1.3a20.24,20.24,0,0,1-11-.74c-3.45-1.36-6.72-3.87-8.16-7.35Z" style="fill: rgb(0, 255, 136); transform-origin: 329.06px 114.845px;" id="el4uzlq1midmg" class="animable"></path><path d="M344.31,93.84c2.83,6.11,4.34,15.36.83,21.44a8.63,8.63,0,0,1-2.1,2.36c4.84-5.94,2.78-16.84,1.27-23.8Z" style="fill: rgb(0, 255, 136); transform-origin: 345.11px 105.74px;" id="elsef39k9hpj" class="animable"></path><path d="M351.89,95.86c2.42,5.68,1.75,12.87-2.4,17.6a15.84,15.84,0,0,1-4.89,3.73,24.62,24.62,0,0,0,4.2-4.28c3.62-4.86,4.18-11.22,3.09-17Z" style="fill: rgb(0, 255, 136); transform-origin: 348.944px 106.525px;" id="el9pptq7mse5j" class="animable"></path><path d="M359.26,99.12c.76,4.68-1.55,9.48-4.89,12.66a20.66,20.66,0,0,1-7.07,4.41c1.07-.81,2.29-1.58,3.32-2.44,4.6-3.54,8.17-8.71,8.64-14.63Z" style="fill: rgb(0, 255, 136); transform-origin: 353.353px 107.655px;" id="ele61dpvy584" class="animable"></path></g></g><g id="elq9xn0qrsgme"><ellipse cx="316.97" cy="91.86" rx="8.69" ry="13.44" style="fill: rgb(255, 255, 255); opacity: 0.7; transform-origin: 316.97px 91.86px; transform: rotate(-16.05deg);" class="animable"></ellipse></g><path d="M320.27,37.15s-9.85-11.8-3.79-13.5S320.27,37.15,320.27,37.15Z" style="fill: rgb(0, 255, 136); transform-origin: 317.598px 30.3337px;" id="elyeigeho6tmf" class="animable"></path><path d="M283,66.63s-15.31-1.38-12.22-6.87S283,66.63,283,66.63Z" style="fill: rgb(0, 255, 136); transform-origin: 276.684px 62.4921px;" id="elsviosp20rlb" class="animable"></path><path d="M277.49,113.82s-11.8,9.85-13.5,3.79S277.49,113.82,277.49,113.82Z" style="fill: rgb(0, 255, 136); transform-origin: 270.674px 116.492px;" id="elhaqlbrxdu5a" class="animable"></path><path d="M307,151.09s-1.38,15.3-6.87,12.22S307,151.09,307,151.09Z" style="fill: rgb(0, 255, 136); transform-origin: 302.862px 157.405px;" id="eld7z1iwtq2p5" class="animable"></path><path d="M354.16,156.59s9.85,11.8,3.79,13.5S354.16,156.59,354.16,156.59Z" style="fill: rgb(0, 255, 136); transform-origin: 356.832px 163.406px;" id="elcrnllah0tu" class="animable"></path><path d="M391.43,127.12s15.31,1.38,12.22,6.86S391.43,127.12,391.43,127.12Z" style="fill: rgb(0, 255, 136); transform-origin: 397.746px 131.252px;" id="elalkytybj4hf" class="animable"></path><path d="M396.94,79.92s11.8-9.85,13.5-3.79S396.94,79.92,396.94,79.92Z" style="fill: rgb(0, 255, 136); transform-origin: 403.756px 77.2478px;" id="el38epkadxc4a" class="animable"></path><path d="M367.46,42.66s1.38-15.31,6.87-12.23S367.46,42.66,367.46,42.66Z" style="fill: rgb(0, 255, 136); transform-origin: 371.598px 36.3403px;" id="elzakp5zh8rck" class="animable"></path><polygon points="279.6 85.87 285.48 84.78 286.79 78.59 288.1 84.78 293.98 85.87 288.13 87.3 286.79 93.16 285.45 87.3 279.6 85.87" style="fill: rgb(255, 255, 255); transform-origin: 286.79px 85.875px;" id="elwob7unjpsb" class="animable"></polygon><polygon points="353.1 121.85 356.38 121.24 357.12 117.78 357.85 121.24 361.14 121.85 357.87 122.65 357.12 125.92 356.37 122.65 353.1 121.85" style="fill: rgb(255, 255, 255); transform-origin: 357.12px 121.85px;" id="ele7r8jjau5h" class="animable"></polygon><polygon points="376.49 50.32 379.77 49.71 380.51 46.25 381.24 49.71 384.52 50.32 381.25 51.12 380.51 54.39 379.76 51.12 376.49 50.32" style="fill: rgb(255, 255, 255); transform-origin: 380.505px 50.32px;" id="el8h0czamydd2" class="animable"></polygon><path d="M337.18,105.25a.68.68,0,0,0,0-1.35A.68.68,0,0,0,337.18,105.25Z" style="fill: rgb(255, 255, 255); transform-origin: 337.18px 104.575px;" id="ell7836trak9" class="animable"></path></g><defs>     <filter id="active" height="200%">         <feMorphology in="SourceAlpha" result="DILATED" operator="dilate" radius="2"></feMorphology>                <feFlood flood-color="#32DFEC" flood-opacity="1" result="PINK"></feFlood>        <feComposite in="PINK" in2="DILATED" operator="in" result="OUTLINE"></feComposite>        <feMerge>            <feMergeNode in="OUTLINE"></feMergeNode>            <feMergeNode in="SourceGraphic"></feMergeNode>        </feMerge>    </filter>    <filter id="hover" height="200%">        <feMorphology in="SourceAlpha" result="DILATED" operator="dilate" radius="2"></feMorphology>                <feFlood flood-color="#ff0000" flood-opacity="0.5" result="PINK"></feFlood>        <feComposite in="PINK" in2="DILATED" operator="in" result="OUTLINE"></feComposite>        <feMerge>            <feMergeNode in="OUTLINE"></feMergeNode>            <feMergeNode in="SourceGraphic"></feMergeNode>        </feMerge>            <feColorMatrix type="matrix" values="0   0   0   0   0                0   1   0   0   0                0   0   0   0   0                0   0   0   1   0 "></feColorMatrix>    </filter></defs></svg>